<?xml version="1.0" encoding="utf-8"?>
<!-- Generator: Adobe Illustrator 16.0.4, SVG Export Plug-In . SVG Version: 6.00 Build 0)  -->
<!DOCTYPE svg PUBLIC "-//W3C//DTD SVG 1.1//EN" "http://www.w3.org/Graphics/SVG/1.1/DTD/svg11.dtd">
<svg version="1.1" id="Layer_1" xmlns="http://www.w3.org/2000/svg" xmlns:xlink="http://www.w3.org/1999/xlink" x="0px" y="0px"
	 width="90px" height="90px" viewBox="0 0 90 90" enable-background="new 0 0 90 90" xml:space="preserve">
<g>
	<path fill="#FFFFFF" d="M38.269,74.623c-0.778,0.777-2.05,0.777-2.828,0L16.349,55.531h0c-0.778,0.777-0.778,2.051,0,2.828
		L35.44,77.451c0.778,0.777,2.05,0.777,2.828,0l31.207-31.207c0.777-0.778,1.394-2.314,1.369-3.414l-0.018-0.766L38.269,74.623z"/>
	<path fill="#FFFFFF" d="M17.763,54.117L35.44,71.794c0.778,0.777,2.05,0.777,2.828,0l31.207-31.208
		c0.573-0.574,1.058-1.561,1.263-2.48c0.073-0.327,0.113-0.646,0.106-0.934l-0.216-9.598l-0.048-2.124
		c-0.024-1.1-0.682-2.636-1.459-3.414l-3.101-3.101c-0.777-0.778-2.313-1.43-3.414-1.449L50.97,17.287
		c-1.101-0.019-2.637,0.602-3.414,1.379L16.348,49.874c-0.177,0.177-0.308,0.381-0.405,0.598c-0.328,0.735-0.196,1.63,0.405,2.23
		L17.763,54.117z M61.533,32.634c-0.025,0.028-0.043,0.061-0.069,0.088c-0.779,0.812-1.829,1.274-2.957,1.297
		c-1.125,0.023-2.195-0.393-3.01-1.174c-0.071-0.068-0.124-0.149-0.189-0.222c-0.687-0.756-1.086-1.711-1.106-2.74
		c-0.021-1.126,0.396-2.194,1.177-3.006c1.559-1.624,4.34-1.682,5.966-0.122c0.81,0.78,1.272,1.831,1.296,2.959
		C62.662,30.803,62.263,31.833,61.533,32.634z"/>
</g>
</svg>
