<?xml version="1.0" encoding="utf-8"?>
<!-- Generator: Adobe Illustrator 16.0.4, SVG Export Plug-In . SVG Version: 6.00 Build 0)  -->
<!DOCTYPE svg PUBLIC "-//W3C//DTD SVG 1.1//EN" "http://www.w3.org/Graphics/SVG/1.1/DTD/svg11.dtd">
<svg version="1.1" id="Layer_1" xmlns="http://www.w3.org/2000/svg" xmlns:xlink="http://www.w3.org/1999/xlink" x="0px" y="0px"
	 width="90px" height="90px" viewBox="0 0 90 90" enable-background="new 0 0 90 90" xml:space="preserve">
<g>
	<path fill="#FFFFFF" d="M68.917,40.53c-0.703-0.705-1.982-0.832-2.751-0.064c-0.512-0.064-1.152-0.256-1.664-0.833
		c-0.959-1.009-0.606-2.733-0.822-3.856c-4.299-0.576-7.8-3.656-8.984-7.731c-2.761-1.037-6.737-1.494-12.459,0.007l0.064,1.536
		c0,0,5.76-0.128,9.854,3.967c0,0,1.664,1.6,0.192,3.134l-1.344,1.28l4.67,4.8l1.281-1.344c0.896-0.833,2.75-0.769,4.35,0.832
		c0.768,0.769,1.152,1.6,1.023,2.048c-0.769,0.767-0.769,1.982,0,2.752l0.705,0.703c0.768,0.768,1.919,0.703,2.688-0.064
		l3.839-3.839c0.703-0.703,0.831-1.855,0.064-2.624L68.917,40.53z"/>
	<path fill="#FFFFFF" d="M48.378,49.998l6.271-6.206l-4.734-4.734l-6.271,6.463l-5.375-5.311c-1.472-1.6-1.856-2.241-1.472-4.095
		c0.703-3.072-0.641-6.207-3.328-7.807c-4.35-2.495-8.061-0.128-8.061-0.128l-0.384,0.513l4.031,2.559c0,0,2.431,1.408,0.256,4.863
		c-1.92,2.943-4.416,1.407-4.416,1.407l-4.03-2.624l-0.32,0.513c0,0-0.192,4.862,3.711,7.357c1.856,1.216,3.839,1.216,5.247,0.704
		c1.406-0.448,2.432,0.064,4.222,1.728l5.311,5.055L27.967,60.557c-0.959,0.96-0.959,2.559,0.064,3.52l2.431,2.494
		c0.896,1.023,2.56,0.961,3.455,0l9.599-11.581l10.237,10.942c1.664,1.6,4.286,1.6,5.886,0c1.664-1.664,1.664-4.224,0.064-5.823
		L48.378,49.998z"/>
	<path fill="#FFFFFF" d="M65,17c-4.418,0-8,3.582-8,8s3.582,8,8,8c4.419,0,8-3.582,8-8S69.419,17,65,17z M66.202,26.979
		l-1.697,1.697l-1.697-1.697l-2.263-2.263l1.697-1.697l2.264,2.262l3.96-3.959l1.696,1.697L66.202,26.979z"/>
</g>
</svg>
