<?xml version="1.0" encoding="utf-8"?>
<!-- Generator: Adobe Illustrator 16.0.4, SVG Export Plug-In . SVG Version: 6.00 Build 0)  -->
<!DOCTYPE svg PUBLIC "-//W3C//DTD SVG 1.1//EN" "http://www.w3.org/Graphics/SVG/1.1/DTD/svg11.dtd">
<svg version="1.1" id="Layer_1" xmlns="http://www.w3.org/2000/svg" xmlns:xlink="http://www.w3.org/1999/xlink" x="0px" y="0px"
	 width="90px" height="90px" viewBox="0 0 90 90" enable-background="new 0 0 90 90" xml:space="preserve">
<g>
	<path fill="none" d="M56.76,59.812c-1.216,0-2.176,0.959-2.176,2.175s0.96,2.176,2.176,2.176c1.217,0,2.176-0.96,2.176-2.176
		S57.977,59.812,56.76,59.812z"/>
	<path fill="#FFFFFF" d="M48.378,48.998l6.271-6.206l-4.734-4.734l-6.271,6.463l-5.375-5.311c-1.472-1.6-1.856-2.241-1.472-4.095
		c0.703-3.072-0.641-6.207-3.328-7.807c-4.35-2.495-8.061-0.128-8.061-0.128l-0.385,0.513l4.031,2.559c0,0,2.432,1.408,0.256,4.863
		c-1.92,2.943-4.415,1.407-4.415,1.407l-4.03-2.624l-0.32,0.513c0,0-0.191,4.862,3.711,7.357c1.856,1.216,3.84,1.216,5.247,0.704
		c1.406-0.448,2.432,0.064,4.222,1.728l5.312,5.055L27.967,59.557c-0.959,0.96-0.959,2.559,0.064,3.52l2.432,2.494
		c0.895,1.023,2.559,0.961,3.454,0l9.599-11.581l10.237,10.942c1.664,1.6,4.286,1.6,5.886,0c1.664-1.664,1.664-4.224,0.064-5.823
		L48.378,48.998z M56.76,64.163c-1.216,0-2.176-0.96-2.176-2.176s0.96-2.175,2.176-2.175c1.217,0,2.176,0.959,2.176,2.175
		S57.977,64.163,56.76,64.163z"/>
	<path fill="#FFFFFF" d="M54.695,27.045c-2.761-1.037-6.737-1.494-12.459,0.007l0.063,1.536c0,0,5.76-0.128,9.854,3.967
		c0,0,1.664,1.6,0.192,3.134l-1.344,1.28l4.67,4.8l1.281-1.344c0.896-0.833,2.75-0.769,4.35,0.832
		c0.768,0.769,1.152,1.6,1.023,2.048c-0.769,0.767-0.769,1.983,0,2.752l0.705,0.703c0.768,0.768,1.919,0.703,2.688-0.064
		l3.839-3.839c0.703-0.703,0.831-1.855,0.064-2.624l-0.705-0.703c-0.703-0.705-1.982-0.832-2.751-0.064
		c-0.512-0.064-1.152-0.256-1.664-0.833c-0.959-1.009-0.605-2.733-0.822-3.856C59.381,34.2,55.88,31.12,54.695,27.045z"/>
	<path fill="#FFFFFF" d="M71.019,18.123c-3.248-3.25-8.517-3.25-11.766,0c-3.25,3.25-3.25,8.517-0.001,11.767
		c3.25,3.249,8.518,3.249,11.767-0.001C74.269,26.64,74.269,21.371,71.019,18.123z M68.742,26.353l-1.697,1.697l-2.263-2.263
		l-2.263,2.263l-1.697-1.697l2.262-2.263l-2.262-2.263l1.697-1.697l2.263,2.262l2.263-2.262l1.697,1.697l-2.263,2.263L68.742,26.353
		z"/>
</g>
</svg>
