<?xml version="1.0" encoding="utf-8"?>
<!-- Generator: Adobe Illustrator 16.0.4, SVG Export Plug-In . SVG Version: 6.00 Build 0)  -->
<!DOCTYPE svg PUBLIC "-//W3C//DTD SVG 1.1//EN" "http://www.w3.org/Graphics/SVG/1.1/DTD/svg11.dtd">
<svg version="1.1" id="Layer_1" xmlns="http://www.w3.org/2000/svg" xmlns:xlink="http://www.w3.org/1999/xlink" x="0px" y="0px"
	 width="90px" height="90px" viewBox="0 0 90 90" enable-background="new 0 0 90 90" xml:space="preserve">
<g>
	<path fill="#FFFFFF" d="M53.709,73.369c1.626-0.726,3.137-1.656,4.521-2.742L47.623,59.43L53.709,73.369z"/>
	<path fill="#FFFFFF" d="M23.346,53.659c0,8.855,5.335,16.461,12.965,19.788l7.852-17.67l-15.468-16.33
		C25.366,43.244,23.346,48.214,23.346,53.659z M31.767,55.765c1.454,0,2.632,1.179,2.632,2.632c0,1.454-1.178,2.633-2.632,2.633
		s-2.632-1.179-2.632-2.633C29.135,56.943,30.312,55.765,31.767,55.765z"/>
	<path fill="#FFFFFF" d="M56.83,35.678c-0.047-0.077-0.089-0.151-0.145-0.233c-0.078-2.991-1.387-5.696-3.32-7.706l4.398-4.449
		c1.25-1.25,1.2-3.275-0.05-4.525c-1.25-1.249-3.276-1.25-4.524,0l-5.708,5.708c-0.823-0.186-1.677-0.292-2.557-0.292
		s-1.732,0.107-2.556,0.292l-5.708-5.708c-1.249-1.25-3.275-1.25-4.525,0c-1.25,1.25-1.25,3.276,0,4.525l4.447,4.447
		c-1.09,1.132-1.944,2.486-2.503,3.986L40.879,39l16.053,16.897c0.201-0.05,0.408-0.107,0.625-0.107
		c1.453,0,2.632,1.166,2.632,2.619c0,0.265-0.051,0.511-0.124,0.751l4.075,4.3c1.505-2.94,2.365-6.269,2.365-9.8
		C66.505,46.146,62.655,39.542,56.83,35.678z M52.293,47.344c-1.453,0-2.631-1.178-2.631-2.631c0-1.453,1.178-2.631,2.631-2.631
		c1.454,0,2.632,1.178,2.632,2.631C54.925,46.166,53.747,47.344,52.293,47.344z"/>
	<path fill="#FFFFFF" d="M67.531,70.526L23.778,24.337c-0.444-0.47-1.053-0.708-1.662-0.708c-0.541,0-1.084,0.188-1.515,0.57
		c-0.914,0.811-0.974,2.188-0.133,3.074l43.753,46.189c0.421,0.445,0.986,0.682,1.562,0.707c0.032,0.002,0.065,0.002,0.098,0.002
		c0.543,0,1.086-0.188,1.518-0.571C68.312,72.789,68.372,71.412,67.531,70.526z"/>
</g>
</svg>
