<?xml version="1.0" encoding="utf-8"?>
<!-- Generator: Adobe Illustrator 16.0.4, SVG Export Plug-In . SVG Version: 6.00 Build 0)  -->
<!DOCTYPE svg PUBLIC "-//W3C//DTD SVG 1.1//EN" "http://www.w3.org/Graphics/SVG/1.1/DTD/svg11.dtd">
<svg version="1.1" id="Layer_1" xmlns="http://www.w3.org/2000/svg" xmlns:xlink="http://www.w3.org/1999/xlink" x="0px" y="0px"
	 width="90px" height="90px" viewBox="0 0 90 90" enable-background="new 0 0 90 90" xml:space="preserve">
<g>
	<g>
		<path fill="#FFFFFF" d="M45,35.443L32.211,22.653c-1.25-1.25-1.25-3.276,0-4.525s3.276-1.25,4.525,0L45,26.392l8.264-8.264
			c1.249-1.25,3.275-1.25,4.525,0s1.25,3.276,0,4.525L45,35.443z"/>
	</g>
	<g>
		<path fill="#FFFFFF" d="M45,31.444c-11.919,0-21.58,9.661-21.58,21.578c0,8.855,5.336,16.461,12.966,19.787l8.793-19.787
			l8.605,19.71c7.538-3.365,12.796-10.921,12.796-19.71C66.58,41.105,56.918,31.444,45,31.444z M31.842,60.392
			c-1.454,0-2.633-1.178-2.633-2.632c0-1.453,1.179-2.632,2.633-2.632c1.453,0,2.632,1.179,2.632,2.632
			C34.474,59.214,33.295,60.392,31.842,60.392z M37.631,46.707c-1.453,0-2.632-1.178-2.632-2.632c0-1.453,1.179-2.631,2.632-2.631
			s2.632,1.178,2.632,2.631C40.263,45.529,39.084,46.707,37.631,46.707z M52.368,46.707c-1.453,0-2.632-1.178-2.632-2.632
			c0-1.453,1.179-2.631,2.632-2.631c1.454,0,2.632,1.178,2.632,2.631C55,45.529,53.822,46.707,52.368,46.707z M57.631,60.392
			c-1.453,0-2.631-1.178-2.631-2.632c0-1.453,1.178-2.632,2.631-2.632c1.454,0,2.633,1.179,2.633,2.632
			C60.264,59.214,59.085,60.392,57.631,60.392z"/>
	</g>
	<g>
		<path fill="#FFFFFF" d="M56.14,39c0.284-1,0.439-2.42,0.439-3.515c0-6.396-5.185-11.758-11.579-11.758
			c-6.396,0-11.58,5.451-11.58,11.846c0,1.095,0.156,2.426,0.441,3.426H56.14z"/>
	</g>
</g>
</svg>
