<?xml version="1.0" encoding="utf-8"?>
<!-- Generator: Adobe Illustrator 16.0.4, SVG Export Plug-In . SVG Version: 6.00 Build 0)  -->
<!DOCTYPE svg PUBLIC "-//W3C//DTD SVG 1.1//EN" "http://www.w3.org/Graphics/SVG/1.1/DTD/svg11.dtd">
<svg version="1.1" id="Layer_1" xmlns="http://www.w3.org/2000/svg" xmlns:xlink="http://www.w3.org/1999/xlink" x="0px" y="0px"
	 width="90px" height="90px" viewBox="0 0 90 90" enable-background="new 0 0 90 90" xml:space="preserve">
<path fill="#FFFFFF" d="M37.766,19.301c0,0,8.041,5.68,0,17.35c-7.267,10.545-11.604,21.74-3.582,30.102
	c2.324,2.423,5.081,3.656,7.896,3.947c-4.553-1.329-7.945-5.869-3.992-13.993c2.432-4.996,8.488-10.879,6.471-17.81
	c0,0,5.451,6.867,1.738,17.332c-1.686,4.754,5.744,5.273,3.732,0.084c-1.218-3.137,5.746,6.23,1.996,11.643
	c3.537-2.445,5.453-6.471,6.857-10.769C62.869,45,57.625,25.344,37.766,19.301z"/>
</svg>
