<?xml version="1.0" encoding="utf-8"?>
<!-- Generator: Adobe Illustrator 16.0.4, SVG Export Plug-In . SVG Version: 6.00 Build 0)  -->
<!DOCTYPE svg PUBLIC "-//W3C//DTD SVG 1.1//EN" "http://www.w3.org/Graphics/SVG/1.1/DTD/svg11.dtd">
<svg version="1.1" id="Layer_1" xmlns="http://www.w3.org/2000/svg" xmlns:xlink="http://www.w3.org/1999/xlink" x="0px" y="0px"
	 width="90px" height="90px" viewBox="0 0 90 90" enable-background="new 0 0 90 90" xml:space="preserve">
<g>
	
		<rect x="43.38" y="31.806" transform="matrix(-0.912 -0.4102 0.4102 -0.912 68.4099 106.9156)" fill="#FFFFFF" width="4.59" height="28.626"/>
	<path fill="#FFFFFF" d="M58.606,32.927l-3.083,3.083l9.812,9.812l-9.812,9.812l4.528,4.528l14.34-14.34L65.471,36.9
		C62.701,36.479,60.275,35.022,58.606,32.927z"/>
	<polygon fill="#FFFFFF" points="30.904,31.481 16.565,45.822 30.904,60.162 35.433,55.634 25.622,45.822 35.433,36.009 	"/>
	<path fill="#FFFFFF" d="M67,34c4.418,0,8-3.582,8-8s-3.582-8-8-8s-8,3.582-8,8S62.582,34,67,34z M63,25h8v2h-8V25z"/>
</g>
</svg>
